<svg xmlns="http://www.w3.org/2000/svg" xmlns:xlink="http://www.w3.org/1999/xlink" x="0px" y="0px" viewBox="0 0 512 512" style="enable-background:new 0 0 512 512;" xml:space="preserve"> <style type="text/css"> .st0{fill:#0521AA;} .st1{fill:#FFFFFF;} .st2{fill:#FFFFFF;stroke:#FFFFFF;stroke-width:4;stroke-miterlimit:10;} .st3{fill:none;stroke:#ABBDFF;stroke-width:13.1459;stroke-miterlimit:10;} </style> <g id="Layer_1"> </g> <g id="Layer_2"> </g> <g id="Layer_3"> </g> <g id="Layer_4"> <g> <g> <path class="st0" d="M228.16,147.78L228.16,147.78c-18.77,0-34.04,15.27-34.04,34.04c0,18.77,15.27,34.04,34.04,34.04 s34.04-15.27,34.04-34.04S246.93,147.78,228.16,147.78z M228.16,203.87c-12.16,0-22.04-9.89-22.04-22.04 c0-12.15,9.89-22.04,22.04-22.04c12.15,0,22.04,9.89,22.04,22.04S240.32,203.87,228.16,203.87z"></path> <g> <path class="st0" d="M228.16,130.12c-56.22,0-101.95,45.74-101.95,101.95c0,56.21,45.74,101.95,101.95,101.95 s101.95-45.73,101.95-101.95C330.11,175.85,284.38,130.12,228.16,130.12z M275.85,308.31c-13.83,8.68-30.18,13.71-47.69,13.71 s-33.85-5.03-47.68-13.71v-28.83c0-21.99,21.39-39.88,47.68-39.88s47.69,17.89,47.69,39.88V308.31z M287.85,299.3v-19.82 c0-28.61-26.77-51.88-59.69-51.88c-32.91,0-59.68,23.27-59.68,51.88v19.82c-18.55-16.49-30.27-40.52-30.27-67.23 c0-49.6,40.35-89.95,89.95-89.95c49.6,0,89.95,40.35,89.95,89.95C318.11,258.79,306.4,282.81,287.85,299.3z"></path> </g> </g> <g> <path class="st0" d="M360.05,232.06c0-29.08-9.47-55.99-25.48-77.81c0.01-0.01,0.03-0.04,0.04-0.06 c-3.99-5.43-8.39-10.59-13.18-15.37c-12.29-12.29-26.43-21.64-41.53-28.05c-0.42-0.18-0.83-0.35-1.25-0.53 c-0.41-0.17-0.83-0.34-1.24-0.51c-15.21-6.14-31.82-9.53-49.21-9.53c-17.39,0-33.99,3.39-49.21,9.53 c-0.42,0.17-0.84,0.34-1.26,0.52c-0.41,0.17-0.82,0.34-1.23,0.52c-15.1,6.41-29.25,15.76-41.54,28.06 c-12.29,12.29-21.64,26.44-28.06,41.54c-0.18,0.41-0.35,0.83-0.52,1.25c-0.17,0.42-0.34,0.83-0.51,1.25 c-6.14,15.21-9.53,31.82-9.53,49.21c0,17.39,3.39,34,9.53,49.21c0.17,0.41,0.34,0.83,0.51,1.24c0.17,0.42,0.35,0.84,0.52,1.25 c6.41,15.1,15.76,29.24,28.06,41.53c12.3,12.3,26.44,21.64,41.54,28.06c0.41,0.18,0.83,0.35,1.24,0.52 c0.42,0.17,0.83,0.35,1.25,0.51c15.21,6.14,31.82,9.53,49.21,9.53c30.7,0,59.72-10.39,83.15-29.51c0.06-0.05,0.12-0.1,0.18-0.15 c0.69-0.57,1.38-1.14,2.07-1.73c0.24-0.2,0.48-0.41,0.71-0.61c0.49-0.42,0.97-0.85,1.46-1.28c0.38-0.34,0.77-0.68,1.15-1.03 c0.08-0.08,0.17-0.15,0.25-0.23c0,0,0,0,0-0.01c1.45-1.32,2.87-2.68,4.27-4.08c23.54-23.54,37.06-54.33,38.49-87.33 c0,0-0.01,0-0.01,0C359.99,236,360.05,234.03,360.05,232.06z M312.92,316.85c-0.53,0.53-1.08,1.05-1.62,1.58 c0-0.01-0.01-0.02-0.01-0.02c-4.16,4.01-8.56,7.68-13.16,11.01c-0.15,0.11-0.3,0.21-0.45,0.32c-0.55,0.39-1.1,0.78-1.66,1.16 c-0.43,0.3-0.86,0.59-1.3,0.88c-0.29,0.19-0.57,0.38-0.86,0.57c-29.81,19.55-66.49,24.43-99.73,14.65 c-0.1-0.03-0.21-0.06-0.31-0.09c-0.7-0.21-1.39-0.42-2.08-0.64c-0.44-0.14-0.89-0.29-1.33-0.43c-0.35-0.12-0.7-0.23-1.05-0.35 c-32.16-11.03-58.19-35.38-71.47-66.43c-0.16-0.37-0.31-0.74-0.46-1.11c-0.15-0.37-0.3-0.74-0.45-1.11 c-12.56-31.35-11.38-66.97,3.57-97.52c0.16-0.33,0.33-0.66,0.49-0.99c0.21-0.42,0.42-0.83,0.63-1.25 c0.33-0.65,0.67-1.29,1.02-1.93c0.05-0.1,0.11-0.2,0.16-0.29c10.59-19.42,26.4-35.61,45.53-46.66c0.13-0.07,0.26-0.15,0.39-0.22 c0.59-0.34,1.19-0.67,1.79-1c0.44-0.24,0.87-0.48,1.31-0.71c0.29-0.16,0.59-0.31,0.89-0.47c32.95-17.16,72.27-17.98,105.83-2.46 c0.07,0.03,0.14,0.07,0.21,0.1c0.66,0.31,1.32,0.63,1.98,0.95c0.48,0.23,0.96,0.47,1.43,0.71c0.25,0.12,0.49,0.25,0.74,0.38 c38.61,19.93,65.07,60.22,65.07,106.58c0,7.59-0.72,15.17-2.12,22.57c0.01,0,0.02,0,0.03,0 C341.5,278.05,330.17,299.59,312.92,316.85z"></path> <path class="st0" d="M426.31,187.69l-37.11-7.97c-1.63-0.35-2.74-1.33-3.3-2.91c-2.04-5.82-4.44-11.6-7.13-17.19 c-0.64-1.32-0.64-2.62-0.03-3.86c0.09-0.17,0.19-0.35,0.3-0.52l20.61-31.89c4.26-6.59,3.36-15.07-2.19-20.62L357.5,62.78 c-5.55-5.55-14.03-6.45-20.62-2.19L304.99,81.2c-1.41,0.91-2.88,1-4.39,0.27c-5.58-2.69-11.37-5.09-17.19-7.13 c-1.58-0.55-2.56-1.66-2.91-3.3l-7.97-37.11c-1.65-7.67-8.28-13.03-16.13-13.03h-56.5c-7.85,0-14.48,5.36-16.13,13.03 l-7.97,37.11c-0.35,1.64-1.33,2.75-2.91,3.3c-5.82,2.04-11.6,4.44-17.18,7.13c-1.32,0.64-2.62,0.64-3.86,0.03 c-0.17-0.09-0.35-0.19-0.52-0.3l-22.83-14.75l-9.07-5.86c-6.59-4.26-15.07-3.36-20.62,2.19l-39.95,39.95 c-5.55,5.55-6.45,14.03-2.19,20.62l20.61,31.89c0.91,1.41,1,2.88,0.27,4.39c-2.7,5.59-5.1,11.37-7.13,17.18 c-0.55,1.58-1.66,2.56-3.3,2.91l-37.11,7.97c-5.75,1.24-10.2,5.28-12.07,10.54c-0.62,1.75-0.96,3.64-0.96,5.6v56.5 c0,7.85,5.36,14.48,13.03,16.13l37.11,7.97c1.64,0.35,2.75,1.33,3.3,2.91c2.04,5.82,4.44,11.6,7.13,17.18 c0.73,1.51,0.63,2.99-0.27,4.39l-3.75,5.8l-16.87,26.08c-4.26,6.59-3.36,15.07,2.19,20.62l0,0c0,0,0,0,0,0l39.95,39.95 c5.55,5.55,14.03,6.45,20.62,2.19l31.89-20.61c1.41-0.91,2.88-1,4.39-0.27c5.59,2.7,11.37,5.1,17.18,7.13 c1.58,0.55,2.56,1.66,2.91,3.3l7.97,37.11c0.83,3.83,2.9,7.09,5.74,9.39c2.84,2.3,6.47,3.64,10.39,3.64h56.5 c7.85,0,14.48-5.36,16.13-13.03l7.97-37.11c0.35-1.63,1.33-2.74,2.91-3.3c5.82-2.04,11.6-4.44,17.19-7.13 c1.51-0.73,2.99-0.63,4.39,0.27l3.45,2.23l28.43,18.39c6.59,4.26,15.07,3.36,20.62-2.19l39.95-39.95 c5.55-5.55,6.45-14.03,2.19-20.62l-20.61-31.89c-0.91-1.41-1-2.88-0.27-4.39c2.69-5.58,5.09-11.36,7.13-17.19 c0.55-1.58,1.66-2.56,3.3-2.91l37.11-7.97c7.67-1.65,13.03-8.28,13.03-16.13v-56.5C439.34,195.97,433.98,189.34,426.31,187.69z M423.79,264.71l-37.11,7.97c-5.75,1.23-10.16,5.12-12.1,10.67c-1.89,5.4-4.12,10.76-6.62,15.94c-2.56,5.3-2.19,11.18,1,16.12 l20.61,31.89c1.18,1.82,0.94,4.08-0.6,5.62l-39.95,39.95c-1.54,1.54-3.79,1.78-5.62,0.6l-8.89-5.75l0.01-0.02l-21.35-13.78 l-1.65-1.07c-4.94-3.19-10.82-3.56-16.12-1c-5.18,2.5-10.54,4.72-15.94,6.62c-5.55,1.94-9.43,6.35-10.67,12.1l-7.97,37.11 c-0.46,2.12-2.22,3.55-4.39,3.55h-56.5c-1.35,0-2.55-0.56-3.37-1.49c-0.49-0.56-0.85-1.26-1.01-2.05l-7.97-37.11 c-0.69-3.24-2.23-6.05-4.43-8.23c-1.71-1.7-3.82-3.02-6.25-3.87c-5.39-1.89-10.75-4.12-15.94-6.62c-5.3-2.56-11.18-2.19-16.12,1 l-31.89,20.61c-1.82,1.18-4.08,0.94-5.62-0.6l-39.94-39.94c-1.54-1.54-1.78-3.79-0.6-5.62l20.61-31.89 c3.19-4.94,3.56-10.82,1-16.12c-2.5-5.18-4.72-10.54-6.62-15.94c-1.33-3.82-3.84-6.84-7.14-8.77c-1.5-0.88-3.17-1.52-4.97-1.91 l-37.11-7.97c-0.79-0.17-1.49-0.53-2.05-1.02c-0.93-0.82-1.49-2.01-1.49-3.37v-56.5c0-2.17,1.43-3.94,3.55-4.39l37.11-7.97 c5.75-1.23,10.16-5.12,12.1-10.67c1.89-5.39,4.12-10.75,6.62-15.94c2.56-5.3,2.19-11.18-1-16.12l-20.61-31.89 c-1.18-1.82-0.94-4.08,0.6-5.62l39.95-39.95c1.54-1.54,3.79-1.77,5.62-0.6l31.89,20.61c4.94,3.19,10.82,3.56,16.12,1 c5.18-2.5,10.55-4.73,15.94-6.62c5.54-1.94,9.43-6.35,10.67-12.1l7.97-37.11c0.46-2.12,2.22-3.55,4.39-3.55h53.02 c0.03,0.04,0.06,0.04,0.08,0h3.4c2.17,0,3.94,1.43,4.39,3.55l7.97,37.11c1.24,5.75,5.12,10.16,10.67,12.1 c5.4,1.89,10.76,4.12,15.94,6.62c5.3,2.56,11.18,2.19,16.12-1l31.89-20.61c1.82-1.18,4.08-0.94,5.62,0.6l39.95,39.95 c1.54,1.54,1.78,3.79,0.6,5.62l-5.75,8.89l-0.03-0.01l-14.84,23c-3.19,4.94-3.56,10.82-1,16.12c0.55,1.15,1.09,2.31,1.62,3.48 c0.07,0.15,0.14,0.3,0.21,0.45c0.01,0.02,0.02,0.04,0.03,0.06c1.22,2.72,2.36,5.48,3.41,8.26c0.47,1.23,0.92,2.46,1.35,3.69 c1.58,4.51,4.78,7.92,9.02,9.7c0.98,0.41,2.01,0.74,3.09,0.97l37.11,7.97c0.79,0.17,1.49,0.53,2.05,1.02 c0.93,0.82,1.49,2.01,1.49,3.37v53.03c-0.04,0.03-0.04,0.06,0,0.08v3.39C427.34,262.49,425.91,264.26,423.79,264.71z"></path> </g> <g> <path class="st1" d="M494.68,469.92l-29.6-86.66c5.73-1.01,10.75-4.49,13.74-9.76c3.86-6.81,3.44-15-1.12-21.37l-4.16-5.82 c-1.3-1.82-1.73-3.69-1.36-5.9c0.37-2.2,1.39-3.83,3.22-5.12l6.13-4.34c6.39-4.53,9.48-12.12,8.06-19.83 c-1.42-7.7-7.01-13.7-14.6-15.66l-6.93-1.78c-2.16-0.56-3.7-1.71-4.83-3.64c-1.13-1.93-1.39-3.83-0.83-5.99l1.91-7.27 c1.99-7.58-0.53-15.38-6.57-20.37s-14.18-5.99-21.24-2.61l-1.17,0.56c-0.94,0.77-2.97,2.22-5.95,2.8 c-2.68,0.52-4.89,0.09-6.04-0.23c-0.53-0.23-1.25-0.61-1.97-1.26c-0.75-0.67-1.35-1.51-1.84-2.53l-3.21-6.79 c-3.33-7.03-10.2-11.38-17.97-11.38h-0.16c-7.83,0.06-14.71,4.52-17.95,11.65l-2.96,6.51c-0.92,2.03-2.33,3.35-4.42,4.12 c-2.09,0.78-4.01,0.71-6.04-0.22l-6.83-3.14c-1.78-0.82-3.63-1.36-5.49-1.64c-1.55-0.19-3.81-0.3-6.46,0.2 c-2.69,0.5-4.77,1.43-6.15,2.18c-1.09,0.62-2.15,1.35-3.14,2.19c-5.94,5.09-8.34,12.93-6.24,20.48l1.92,6.89 c0.6,2.15,0.37,4.06-0.74,6c-1.1,1.94-2.62,3.12-4.78,3.71l-7.25,1.98c-3.9,1.07-7.25,3.21-9.77,6.09 c-0.84,0.97-3.69,4.42-4.59,9.78c-0.44,2.58-0.29,4.78-0.07,6.27c0.51,2.25,1.51,5.29,3.59,8.39c0.77,1.15,1.57,2.14,2.34,2.97 c0.78,0.74,1.62,1.44,2.54,2.07l5.9,4.05c1.84,1.26,2.89,2.88,3.29,5.07c0.4,2.2,0,4.08-1.27,5.91l-4.28,6.18 c-4.46,6.44-4.76,14.63-0.8,21.39c2.98,5.08,7.85,8.44,13.4,9.47l-29.51,86.4c-0.91,2.67,0.16,5.62,2.58,7.08 c2.42,1.46,5.53,1.03,7.46-1.02l24.82-26.33l3.53,36.01c0.27,2.81,2.47,5.05,5.28,5.38c0.23,0.03,0.47,0.04,0.7,0.04 c2.54,0,4.84-1.61,5.67-4.06l24.42-71.5c4.14-0.64,8.04-2.58,11.13-5.73l5.01-5.11c1.56-1.6,3.33-2.35,5.57-2.36 c2.22-0.02,4.02,0.71,5.6,2.28l5.34,5.28c2.99,2.96,6.7,4.82,10.62,5.49l24.48,71.66c0.84,2.45,3.14,4.06,5.67,4.06 c0.23,0,0.46-0.01,0.7-0.04c2.81-0.33,5-2.56,5.28-5.38l3.53-36.01L484.64,476c1.93,2.04,5.05,2.47,7.46,1.02 C494.52,475.56,495.6,472.59,494.68,469.92z"></path> </g> <g> <path class="st0" d="M494.68,469.92l-29.6-86.66c5.73-1.01,10.75-4.49,13.74-9.76c3.86-6.81,3.44-15-1.12-21.37l-4.16-5.82 c-1.3-1.82-1.73-3.69-1.36-5.9c0.37-2.2,1.39-3.83,3.22-5.12l6.13-4.34c6.39-4.53,9.48-12.12,8.06-19.83 c-1.42-7.7-7.01-13.7-14.6-15.66l-6.93-1.78c-2.16-0.56-3.7-1.71-4.83-3.64c-1.13-1.93-1.39-3.83-0.83-5.99l1.91-7.27 c1.99-7.58-0.53-15.38-6.57-20.37s-14.18-5.99-21.24-2.61l-1.17,0.56c-0.94,0.77-2.97,2.22-5.95,2.8 c-2.68,0.52-4.89,0.09-6.04-0.23c-0.53-0.23-1.25-0.61-1.97-1.26c-0.75-0.67-1.35-1.51-1.84-2.53l-3.21-6.79 c-3.33-7.03-10.2-11.38-17.97-11.38h-0.16c-7.83,0.06-14.71,4.52-17.95,11.65l-2.96,6.51c-0.92,2.03-2.33,3.35-4.42,4.12 c-2.09,0.78-4.01,0.71-6.04-0.22l-6.83-3.14c-1.78-0.82-3.63-1.36-5.49-1.64c-1.55-0.19-3.81-0.3-6.46,0.2 c-2.69,0.5-4.77,1.43-6.15,2.18c-1.09,0.62-2.15,1.35-3.14,2.19c-5.94,5.09-8.34,12.93-6.24,20.48l1.92,6.89 c0.6,2.15,0.37,4.06-0.74,6c-1.1,1.94-2.62,3.12-4.78,3.71l-7.25,1.98c-3.9,1.07-7.25,3.21-9.77,6.09 c-0.84,0.97-3.69,4.42-4.59,9.78c-0.44,2.58-0.29,4.78-0.07,6.27c0.51,2.25,1.51,5.29,3.59,8.39c0.77,1.15,1.57,2.14,2.34,2.97 c0.78,0.74,1.62,1.44,2.54,2.07l5.9,4.05c1.84,1.26,2.89,2.88,3.29,5.07c0.4,2.2,0,4.08-1.27,5.91l-4.28,6.18 c-4.46,6.44-4.76,14.63-0.8,21.39c2.98,5.08,7.85,8.44,13.4,9.47l-29.51,86.4c-0.91,2.67,0.16,5.62,2.58,7.08 c2.42,1.46,5.53,1.03,7.46-1.02l24.82-26.33l3.53,36.01c0.27,2.81,2.47,5.05,5.28,5.38c0.23,0.03,0.47,0.04,0.7,0.04 c2.54,0,4.84-1.61,5.67-4.06l24.42-71.5c4.14-0.64,8.04-2.58,11.13-5.73l5.01-5.11c1.56-1.6,3.33-2.35,5.57-2.36 c2.22-0.02,4.02,0.71,5.6,2.28l5.34,5.28c2.99,2.96,6.7,4.82,10.62,5.49l24.48,71.66c0.84,2.45,3.14,4.06,5.67,4.06 c0.23,0,0.46-0.01,0.7-0.04c2.81-0.33,5-2.56,5.28-5.38l3.53-36.01L484.64,476c1.93,2.04,5.05,2.47,7.46,1.02 C494.52,475.56,495.6,472.59,494.68,469.92z M350.05,456.93l-2.11-21.58c-0.23-2.34-1.81-4.33-4.03-5.09 c-2.23-0.76-4.69-0.15-6.31,1.56l-14.88,15.78l22.03-64.51c2.2-0.2,4.03,0.36,5.74,1.77c1.72,1.42,2.62,3.12,2.83,5.35l0.69,7.48 c0.65,6.95,4.72,12.85,10.83,15.9L350.05,456.93z M431.4,396.34c-0.25,3.19-2.11,5.66-5.11,6.78c-2.99,1.12-6.02,0.47-8.3-1.78 l-5.36-5.29c-3.84-3.8-8.74-5.75-14.13-5.75c-5.4,0.04-10.26,2.1-14.04,5.96l-5.01,5.11c-2.24,2.28-5.25,2.98-8.27,1.91 c-3.01-1.07-4.91-3.51-5.21-6.7l-0.69-7.48c-0.5-5.38-2.97-10.04-7.13-13.49c-3.64-3-7.94-4.56-12.55-4.56 c-0.67,0-1.35,0.03-2.04,0.1l-7.12,0.69c-3.19,0.31-5.94-1.09-7.56-3.85c-1.62-2.76-1.5-5.85,0.32-8.48l4.28-6.18 c3.08-4.44,4.19-9.6,3.21-14.92s-3.85-9.74-8.31-12.8l-5.9-4.05c-2.64-1.81-3.85-4.66-3.31-7.81c0.54-3.15,2.61-5.45,5.69-6.29 l7.25-1.98c5.21-1.43,9.38-4.67,12.04-9.37c2.67-4.7,3.31-9.94,1.86-15.14l-1.92-6.89c-0.86-3.08,0.05-6.04,2.48-8.11 c2.44-2.07,5.5-2.5,8.41-1.16l6.83,3.14c4.91,2.26,10.18,2.45,15.25,0.57c5.06-1.89,8.92-5.48,11.16-10.4l2.96-6.51 c1.32-2.91,3.92-4.6,7.12-4.62h0.07c3.17,0,5.76,1.64,7.12,4.51l3.21,6.79c2.31,4.89,6.22,8.43,11.31,10.24 c5.09,1.81,10.36,1.53,15.24-0.8l6.46-3.09c2.88-1.38,5.96-1,8.42,1.03c2.47,2.04,3.42,4.98,2.6,8.08l-1.91,7.27 c-1.37,5.23-0.65,10.45,2.09,15.11s6.95,7.84,12.18,9.18l6.93,1.78c3.1,0.8,5.21,3.06,5.79,6.21c0.58,3.15-0.59,6.01-3.2,7.86 l-6.13,4.34c-4.41,3.12-7.22,7.59-8.12,12.92c-0.9,5.33,0.29,10.47,3.43,14.87l4.16,5.82c1.86,2.6,2.02,5.69,0.44,8.47 c-1.58,2.78-4.31,4.23-7.5,3.97l-7.49-0.61c-5.39-0.44-10.41,1.18-14.52,4.68c-4.11,3.51-6.51,8.21-6.93,13.59L431.4,396.34z M459.49,431.82c-1.61-1.71-4.08-2.32-6.31-1.56s-3.8,2.75-4.03,5.09l-2.11,21.58l-14.8-43.34c6.35-3.07,10.55-9.16,11.1-16.32 l0.55-7.14c0.17-2.23,1.05-3.94,2.75-5.39c1.67-1.42,3.46-2.01,5.62-1.86l22.1,64.71L459.49,431.82z"></path> <path class="st0" d="M425.58,339.01l24.8-19.76c1.96-1.56,2.74-4.17,1.97-6.55c-0.77-2.38-2.94-4.03-5.44-4.14l-31.68-1.41 l-11.13-29.7c-0.88-2.34-3.12-3.89-5.62-3.89s-4.74,1.55-5.62,3.89l-11.13,29.7l-31.68,1.41c-2.5,0.11-4.67,1.76-5.44,4.14 c-0.77,2.38,0.01,4.99,1.97,6.55l24.8,19.76l-8.45,30.57c-0.67,2.41,0.23,4.98,2.26,6.45c2.02,1.47,4.75,1.53,6.83,0.15 l26.46-17.48l26.46,17.48c1,0.67,2.15,1,3.3,1l0,0c1.24,0,2.48-0.38,3.53-1.15c2.02-1.47,2.92-4.04,2.26-6.45L425.58,339.01z M412.96,338.39l5.24,18.96l-16.42-10.84c-1-0.66-2.16-0.99-3.31-0.99s-2.3,0.33-3.31,0.99l-16.41,10.84l5.24-18.96 c0.64-2.32-0.16-4.79-2.04-6.29l-15.39-12.26l19.65-0.87c2.4-0.11,4.51-1.64,5.35-3.89l6.91-18.42l6.91,18.42 c0.84,2.25,2.95,3.78,5.35,3.89l19.65,0.87L415,332.1C413.12,333.6,412.32,336.07,412.96,338.39z"></path> </g> </g> </g> </svg>