<svg xmlns="http://www.w3.org/2000/svg" xmlns:xlink="http://www.w3.org/1999/xlink" x="0px" y="0px" viewBox="0 0 512 512" style="enable-background:new 0 0 512 512;" xml:space="preserve"> <style type="text/css"> .st0{fill:#0521AA;} .st1{fill:#FFFFFF;} .st2{fill:#FFFFFF;stroke:#FFFFFF;stroke-width:4;stroke-miterlimit:10;} .st3{fill:none;stroke:#ABBDFF;stroke-width:13.1459;stroke-miterlimit:10;} </style> <g id="Layer_1"> <g> <g> <g> <g> <path class="st0" d="M498.77,435.19c-0.95,11.88-11.52,13.01-14.82,13.06H27.41c-3.19-0.05-13.26-1.18-14.17-13.06h192.49 c3.09,6.07,9.55,8.82,15.02,8.82h70.52c5.47,0,11.93-2.75,15.02-8.82H498.77z"></path> </g> </g> <g> <g> <path class="st0" d="M423.45,198.9H87.07c-15.97,0-28.96,13-28.96,28.98v197.43H71.2V227.88c0-8.77,7.12-15.9,15.87-15.9 h336.38c8.76,0,15.88,7.13,15.88,15.9v197.43h13.09V227.88C452.41,211.9,439.41,198.9,423.45,198.9z M251.51,205.44 c0-2.08,1.68-3.75,3.76-3.77c2.07,0.02,3.76,1.69,3.76,3.77c0,2.09-1.69,3.76-3.76,3.77 C253.2,209.2,251.51,207.53,251.51,205.44z"></path> <path class="st1" d="M255.24,199.17c-3.44,0.03-6.24,2.85-6.24,6.27c0,3.44,2.8,6.25,6.25,6.27h0.02 c3.45-0.02,6.25-2.83,6.25-6.27C261.53,202.02,258.72,199.2,255.24,199.17z M255.27,209.21c-2.07-0.01-3.76-1.68-3.76-3.77 c0-2.08,1.68-3.75,3.76-3.77c2.07,0.02,3.76,1.69,3.76,3.77C259.03,207.53,257.34,209.2,255.27,209.21z M255.24,199.17 c-3.44,0.03-6.24,2.85-6.24,6.27c0,3.44,2.8,6.25,6.25,6.27h0.02c3.45-0.02,6.25-2.83,6.25-6.27 C261.53,202.02,258.72,199.2,255.24,199.17z M255.27,209.21c-2.07-0.01-3.76-1.68-3.76-3.77c0-2.08,1.68-3.75,3.76-3.77 c2.07,0.02,3.76,1.69,3.76,3.77C259.03,207.53,257.34,209.2,255.27,209.21z M255.24,199.17c-3.44,0.03-6.24,2.85-6.24,6.27 c0,3.44,2.8,6.25,6.25,6.27h0.02c3.45-0.02,6.25-2.83,6.25-6.27C261.53,202.02,258.72,199.2,255.24,199.17z M255.27,209.21 c-2.07-0.01-3.76-1.68-3.76-3.77c0-2.08,1.68-3.75,3.76-3.77c2.07,0.02,3.76,1.69,3.76,3.77 C259.03,207.53,257.34,209.2,255.27,209.21z"></path> </g> </g> </g> <g> <path class="st2" d="M351.12,63.75c14.6,10.84,25.6,24.53,33.01,41.08c7.41,16.55,11.01,35.73,10.82,57.56l18.62,12.61 c2.5,1.7,4.43,3.87,5.77,6.51c1.34,2.64,2,5.42,1.97,8.36l-0.48,52.9l-44.08-18.19l-53.84-0.48l-44.4,17.39l0.32-52.74 c0.03-2.94,0.76-5.74,2.2-8.4c1.44-2.66,3.43-4.82,5.96-6.48l18.85-12.27c0.2-21.83,4.1-40.95,11.7-57.36 C325.14,87.81,336.33,74.32,351.12,63.75z M322.71,263.92c0.07-7.35,2.75-13.67,8.04-18.98c5.3-5.31,11.62-7.93,18.96-7.86 c7.35,0.07,13.62,2.8,18.82,8.2c5.2,5.4,7.77,11.77,7.7,19.12c-0.05,5.25-2.23,11.87-6.56,19.86s-11.21,18.08-20.66,30.28 c-9.23-12.36-15.93-22.58-20.11-30.65C324.73,275.83,322.67,269.17,322.71,263.92z"></path> <g> <path class="st0" d="M366.73,247.01c-4.75-4.94-10.33-7.37-17.04-7.43c-6.7-0.1-12.32,2.27-17.17,7.12 c-4.86,4.87-7.25,10.51-7.31,17.24c-0.04,4.81,1.95,11.13,5.92,18.8c3.79,7.32,9.82,16.61,17.93,27.64 c8.3-10.88,14.49-20.06,18.42-27.32c4.11-7.59,6.21-13.88,6.25-18.69C373.79,257.65,371.52,251.97,366.73,247.01z M357.79,274.11c-1.88,3.9-4.12,7.57-6.65,10.91l-2.03,2.69l-1.98-2.72c-2.48-3.41-4.63-7.15-6.39-11.15 c-1.86-4.21-2.75-7.46-2.73-9.95c0.03-3.16,1.16-5.93,3.35-8.21c2.21-2.3,4.94-3.47,8.11-3.47h0.12 c3.25,0.03,5.99,1.29,8.13,3.75c2.07,2.37,3.11,5.16,3.08,8.3C360.78,266.75,359.79,269.98,357.79,274.11z M361.35,139.69 c-3.03-3.09-6.53-4.6-10.71-4.64h-0.15c-4.11,0-7.61,1.48-10.71,4.52c-3.14,3.08-4.68,6.61-4.72,10.79 c-0.04,4.17,1.42,7.7,4.44,10.78c3.03,3.09,6.53,4.61,10.71,4.64c4.17,0.05,7.73-1.44,10.87-4.52 c3.14-3.08,4.68-6.61,4.72-10.78C365.83,146.3,364.38,142.77,361.35,139.69z M361.35,139.69c-3.03-3.09-6.53-4.6-10.71-4.64 h-0.15c-4.11,0-7.61,1.48-10.71,4.52c-3.14,3.08-4.68,6.61-4.72,10.79c-0.04,4.17,1.42,7.7,4.44,10.78 c3.03,3.09,6.53,4.61,10.71,4.64c4.17,0.05,7.73-1.44,10.87-4.52c3.14-3.08,4.68-6.61,4.72-10.78 C365.83,146.3,364.38,142.77,361.35,139.69z M361.35,139.69c-3.03-3.09-6.53-4.6-10.71-4.64h-0.15c-4.11,0-7.61,1.48-10.71,4.52 c-3.14,3.08-4.68,6.61-4.72,10.79c-0.04,4.17,1.42,7.7,4.44,10.78c3.03,3.09,6.53,4.61,10.71,4.64 c4.17,0.05,7.73-1.44,10.87-4.52c3.14-3.08,4.68-6.61,4.72-10.78C365.83,146.3,364.38,142.77,361.35,139.69z M361.35,139.69 c-3.03-3.09-6.53-4.6-10.71-4.64h-0.15c-4.11,0-7.61,1.48-10.71,4.52c-3.14,3.08-4.68,6.61-4.72,10.79 c-0.04,4.17,1.42,7.7,4.44,10.78c3.03,3.09,6.53,4.61,10.71,4.64c4.17,0.05,7.73-1.44,10.87-4.52 c3.14-3.08,4.68-6.61,4.72-10.78C365.83,146.3,364.38,142.77,361.35,139.69z M361.35,139.69c-3.03-3.09-6.53-4.6-10.71-4.64 h-0.15c-4.11,0-7.61,1.48-10.71,4.52c-3.14,3.08-4.68,6.61-4.72,10.79c-0.04,4.17,1.42,7.7,4.44,10.78 c3.03,3.09,6.53,4.61,10.71,4.64c4.17,0.05,7.73-1.44,10.87-4.52c3.14-3.08,4.68-6.61,4.72-10.78 C365.83,146.3,364.38,142.77,361.35,139.69z M361.35,139.69c-3.03-3.09-6.53-4.6-10.71-4.64h-0.15c-4.11,0-7.61,1.48-10.71,4.52 c-3.14,3.08-4.68,6.61-4.72,10.79c-0.04,4.17,1.42,7.7,4.44,10.78c3.03,3.09,6.53,4.61,10.71,4.64 c4.17,0.05,7.73-1.44,10.87-4.52c3.14-3.08,4.68-6.61,4.72-10.78C365.83,146.3,364.38,142.77,361.35,139.69z M417.1,182.63 c-1.15-2.27-2.77-4.09-4.94-5.57l-19.73-13.35l0.01-1.34c0.2-21.37-3.37-40.38-10.6-56.52c-6.94-15.52-17.28-28.62-30.75-38.98 c-13.64,10.11-24.16,23.02-31.29,38.41c-7.41,16.01-11.27,34.96-11.46,56.33l-0.01,1.34l-19.97,13 c-2.2,1.44-3.88,3.26-5.13,5.57c-1.25,2.32-1.87,4.69-1.9,7.24l-0.29,49.04l41.41-16.22l54.81,0.49l41.1,16.96l0.44-49.19 C418.84,187.32,418.26,184.9,417.1,182.63z M294.02,219.03l0.28-31.49l14.92-9.82l0.64,3.76c0.79,4.54,1.74,8.98,2.83,13.21 c1.1,4.24,2.37,8.6,3.78,12.96l0.72,2.23L294.02,219.03z M376.9,185.19c-1.68,8.65-3.98,16.18-6.84,22.39l-0.67,1.47 l-38.97-0.18l-0.66-1.49c-2.74-6.27-4.9-13.84-6.42-22.51c-1.52-8.63-2.25-17.53-2.17-26.45c0.13-14.92,2.78-29.26,7.86-42.6 c5.13-13.46,12-23.94,20.43-31.14l1.65-1.41l1.63,1.44c8.3,7.35,14.96,17.93,19.79,31.43c4.78,13.38,7.14,27.73,7.01,42.65 C379.46,167.71,378.57,176.6,376.9,185.19z M405.74,220.06l-23.16-9.76l0.76-2.21c1.49-4.33,2.87-8.65,4.1-12.84 c1.22-4.14,2.27-8.52,3.13-13.04l0.72-3.75l14.73,10.09L405.74,220.06z M350.64,135.05h-0.15c-4.11,0-7.61,1.48-10.71,4.52 c-3.14,3.08-4.68,6.61-4.72,10.79c-0.04,4.17,1.42,7.7,4.44,10.78c3.03,3.09,6.53,4.61,10.71,4.64 c4.17,0.05,7.73-1.44,10.87-4.52c3.14-3.08,4.68-6.61,4.72-10.78c0.03-4.18-1.42-7.71-4.45-10.79 C358.32,136.6,354.82,135.09,350.64,135.05z M361.35,139.69c-3.03-3.09-6.53-4.6-10.71-4.64h-0.15c-4.11,0-7.61,1.48-10.71,4.52 c-3.14,3.08-4.68,6.61-4.72,10.79c-0.04,4.17,1.42,7.7,4.44,10.78c3.03,3.09,6.53,4.61,10.71,4.64 c4.17,0.05,7.73-1.44,10.87-4.52c3.14-3.08,4.68-6.61,4.72-10.78C365.83,146.3,364.38,142.77,361.35,139.69z M361.35,139.69 c-3.03-3.09-6.53-4.6-10.71-4.64h-0.15c-4.11,0-7.61,1.48-10.71,4.52c-3.14,3.08-4.68,6.61-4.72,10.79 c-0.04,4.17,1.42,7.7,4.44,10.78c3.03,3.09,6.53,4.61,10.71,4.64c4.17,0.05,7.73-1.44,10.87-4.52 c3.14-3.08,4.68-6.61,4.72-10.78C365.83,146.3,364.38,142.77,361.35,139.69z M361.35,139.69c-3.03-3.09-6.53-4.6-10.71-4.64 h-0.15c-4.11,0-7.61,1.48-10.71,4.52c-3.14,3.08-4.68,6.61-4.72,10.79c-0.04,4.17,1.42,7.7,4.44,10.78 c3.03,3.09,6.53,4.61,10.71,4.64c4.17,0.05,7.73-1.44,10.87-4.52c3.14-3.08,4.68-6.61,4.72-10.78 C365.83,146.3,364.38,142.77,361.35,139.69z M361.35,139.69c-3.03-3.09-6.53-4.6-10.71-4.64h-0.15c-4.11,0-7.61,1.48-10.71,4.52 c-3.14,3.08-4.68,6.61-4.72,10.79c-0.04,4.17,1.42,7.7,4.44,10.78c3.03,3.09,6.53,4.61,10.71,4.64 c4.17,0.05,7.73-1.44,10.87-4.52c3.14-3.08,4.68-6.61,4.72-10.78C365.83,146.3,364.38,142.77,361.35,139.69z M361.35,139.69 c-3.03-3.09-6.53-4.6-10.71-4.64h-0.15c-4.11,0-7.61,1.48-10.71,4.52c-3.14,3.08-4.68,6.61-4.72,10.79 c-0.04,4.17,1.42,7.7,4.44,10.78c3.03,3.09,6.53,4.61,10.71,4.64c4.17,0.05,7.73-1.44,10.87-4.52 c3.14-3.08,4.68-6.61,4.72-10.78C365.83,146.3,364.38,142.77,361.35,139.69z M361.35,139.69c-3.03-3.09-6.53-4.6-10.71-4.64 h-0.15c-4.11,0-7.61,1.48-10.71,4.52c-3.14,3.08-4.68,6.61-4.72,10.79c-0.04,4.17,1.42,7.7,4.44,10.78 c3.03,3.09,6.53,4.61,10.71,4.64c4.17,0.05,7.73-1.44,10.87-4.52c3.14-3.08,4.68-6.61,4.72-10.78 C365.83,146.3,364.38,142.77,361.35,139.69z M361.35,139.69c-3.03-3.09-6.53-4.6-10.71-4.64h-0.15c-4.11,0-7.61,1.48-10.71,4.52 c-3.14,3.08-4.68,6.61-4.72,10.79c-0.04,4.17,1.42,7.7,4.44,10.78c3.03,3.09,6.53,4.61,10.71,4.64 c4.17,0.05,7.73-1.44,10.87-4.52c3.14-3.08,4.68-6.61,4.72-10.78C365.83,146.3,364.38,142.77,361.35,139.69z M361.35,139.69 c-3.03-3.09-6.53-4.6-10.71-4.64h-0.15c-4.11,0-7.61,1.48-10.71,4.52c-3.14,3.08-4.68,6.61-4.72,10.79 c-0.04,4.17,1.42,7.7,4.44,10.78c3.03,3.09,6.53,4.61,10.71,4.64c4.17,0.05,7.73-1.44,10.87-4.52 c3.14-3.08,4.68-6.61,4.72-10.78C365.83,146.3,364.38,142.77,361.35,139.69z"></path> </g> </g> </g> </g> <g id="Layer_2"> </g> <g id="Layer_3"> </g> <g id="Layer_4"> </g> </svg>