<svg xmlns="http://www.w3.org/2000/svg" xmlns:xlink="http://www.w3.org/1999/xlink" x="0px" y="0px" viewBox="0 0 512 512" style="enable-background:new 0 0 512 512;" xml:space="preserve"> <style type="text/css"> .st0{fill:#0521AA;} .st1{fill:#FFFFFF;} .st2{fill:#FFFFFF;stroke:#FFFFFF;stroke-width:4;stroke-miterlimit:10;} .st3{fill:none;stroke:#ABBDFF;stroke-width:13.1459;stroke-miterlimit:10;} </style> <g id="Layer_1"> </g> <g id="Layer_2"> <g> <g> <g> <g> <path class="st0" d="M326.8,172.69l1.92-6.09h23.65c9.97,0,19.59-5.03,26.4-13.78l0.06-0.08c4.32-5.38,9.83-8.34,15.51-8.34 h20.08c3.83,0,6.95-3.11,6.95-6.94c0-3.83-3.11-6.95-6.95-6.95h-20.08c-9.94,0-19.6,5.01-26.5,13.71 c-4.2,5.42-9.71,8.43-15.47,8.43h-23.52l-1.53-4.42c-2.55-7.37-7.53-13.69-14.06-17.8l-5.92-3.71l21.84-30.46 c8.13-11.23,11.57-27.28,8.58-39.95c-2.22-9.18-7.74-16.46-15.49-20.44c-30.4-15.73-61.04-23.59-91.72-23.59 c-30.63,0-61.3,7.84-91.79,23.52c-7.84,4.11-13.22,11.2-15.52,20.51c-3.06,12.81,0.3,28.51,8.58,39.92l21.74,30.43l-5.79,3.73 c-10.06,6.49-16.07,17.43-16.07,29.26c0,10.48,4.76,20.34,13.08,27.05l6.19,5l-6.08,5.14 C92.35,241.23,38.05,320.65,42.97,390.13c1.38,19.32,8.6,47.06,35.22,69.49c31.59,26.6,82.85,40.08,152.36,40.08 s120.78-13.49,152.36-40.08c26.64-22.43,33.86-50.17,35.23-69.49c4.91-69.56-49.39-148.95-101.92-193.28l-6.08-5.13l6.18-5.01 C321.91,182.2,324.85,178.25,326.8,172.69z M143.25,88.23c-4.18-5.77-6.69-13.43-7.02-20.54h-1.29l1.87-8.05 c0.86-3.72,3.01-8.71,8.4-11.41c28.61-14.69,57.36-22.16,85.4-22.16c28.05,0,56.75,7.47,85.29,22.2l0.13,0.06 c4.13,2.19,6.9,5.95,8.23,11.15l0.03,0.13c2.05,8.77-0.54,20.53-6.3,28.6l-26.37,36.79h-122L143.25,88.23z M372.07,283.4 c16.24,26.49,35.01,66.34,32.22,105.72l-0.43,6.11h-0.24c-7.82,59.22-67.46,90.46-173.06,90.46 c-109.17,0-169.23-33.39-173.67-96.57c-2.79-39.39,15.98-79.23,32.21-105.72c20.77-33.87,49.83-65.89,79.77-87.86l1.73-1.27 h119.99l1.74,1.27C322.24,217.51,351.31,249.53,372.07,283.4z M310.72,172.8c-3.97,4.81-9.82,7.57-16.04,7.57H166.42 c-11.45,0-20.77-9.28-20.77-20.71c0-11.46,9.32-20.77,20.77-20.77H294.3c10.16,0,18.9,7.05,20.77,16.78 c0.25,1.32,0.38,2.66,0.38,3.97C315.45,164.42,313.81,169.06,310.72,172.8z"></path> </g> <g> <path class="st0" d="M270.45,363.88c0,15.98-10.75,29.26-27.38,33.87l-4.09,1.13v19.5c0,0.62-0.58,1.19-1.19,1.19H225.2 c-0.61,0-1.19-0.58-1.19-1.19v-18.77l-4.89-0.59c-9.81-1.17-19.15-4.39-25.02-8.63c-0.44-0.32-0.62-0.88-0.45-1.36l4.83-13.35 c0.12-0.33,0.41-0.62,0.76-0.74c0.08-0.02,0.18-0.04,0.27-0.04c0.23,0,0.5,0.08,0.72,0.22c7.87,5.25,18.35,8.38,28.04,8.38 c13.23,0,22.46-7.53,22.46-18.32c0-9.77-6.3-16.3-21.8-22.57c-17.4-6.84-33.5-15.87-33.5-35.55c0-15.65,9.7-27.66,25.94-32.12 l4.09-1.12v-18.94c0-0.62,0.59-1.19,1.2-1.19h12.32c0.66,0,1.2,0.55,1.2,1.19v18.01l4.9,0.59c7.68,0.92,14.32,3.1,20.33,6.69 l0.11,0.07c0.44,0.25,0.64,0.83,0.41,1.4l-4.97,13.19c-0.1,0.28-0.35,0.54-0.7,0.67c-0.32,0.1-0.78,0.05-1.05-0.1l-0.19-0.11 c-3.46-1.94-11.56-6.48-24.24-6.48c-14.68,0-19.89,8.55-19.89,15.89c0,9.19,6.63,14.12,20.52,20.13v0.13l3.47,1.41 C254.49,332.71,270.45,342.12,270.45,363.88z"></path> </g> </g> </g> <g> <ellipse transform="matrix(0.7071 -0.7071 0.7071 0.7071 -159.4973 383.6076)" class="st1" cx="383.31" cy="384.33" rx="79.46" ry="79.46"></ellipse> <path class="st0" d="M383.31,470.37c-47.44,0-86.03-38.59-86.03-86.03s38.59-86.03,86.03-86.03s86.03,38.59,86.03,86.03 S430.75,470.37,383.31,470.37z M383.31,311.45c-40.19,0-72.89,32.7-72.89,72.89s32.7,72.89,72.89,72.89s72.89-32.7,72.89-72.89 S423.5,311.45,383.31,311.45z"></path> </g> <g> <path class="st0" d="M339.28,368.29c0-12.49,7.84-20.03,18.48-20.03c10.74,0,18.58,7.54,18.58,20.03 c0,12.59-7.84,20.03-18.58,20.03C347.13,388.31,339.28,380.88,339.28,368.29z M400.5,349.19h14.86l-49.34,72.26h-14.86 L400.5,349.19z M363.85,368.29c0-7.33-2.58-10.22-6.09-10.22c-3.3,0-6.09,2.89-6.09,10.22c0,7.33,2.79,10.22,6.09,10.22 C361.27,378.51,363.85,375.62,363.85,368.29z M390.28,402.35c0-12.49,7.74-20.03,18.48-20.03c10.74,0,18.58,7.53,18.58,20.03 c0,12.59-7.85,20.03-18.58,20.03C398.02,422.38,390.28,414.95,390.28,402.35z M414.84,402.35c0-7.33-2.68-10.22-6.09-10.22 c-3.41,0-6.09,2.89-6.09,10.22c0,7.33,2.68,10.22,6.09,10.22C412.16,412.57,414.84,409.68,414.84,402.35z"></path> </g> </g> </g> <g id="Layer_3"> </g> <g id="Layer_4"> </g> </svg>