<svg xmlns="http://www.w3.org/2000/svg" xmlns:xlink="http://www.w3.org/1999/xlink" x="0px" y="0px" viewBox="0 0 512 512" style="enable-background:new 0 0 512 512;" xml:space="preserve"> <style type="text/css"> .st0{fill:#0521AA;} .st1{fill:#FFFFFF;} .st2{fill:#FFFFFF;stroke:#FFFFFF;stroke-width:4;stroke-miterlimit:10;} .st3{fill:none;stroke:#ABBDFF;stroke-width:13.1459;stroke-miterlimit:10;} </style> <g id="Layer_1"> </g> <g id="Layer_2"> </g> <g id="Layer_3"> <g> <g> <g> <g> <path class="st0" d="M274.21,206.75l-21.93-18.54l2.83-28.57c0.28-2.75-1.01-5.36-3.35-6.82c-2.34-1.46-5.26-1.46-7.61-0.01 l-24.4,15.13l-26.3-11.53c-0.94-0.41-1.93-0.61-2.9-0.61c-1.67,0-3.3,0.57-4.63,1.69c-2.11,1.78-3.02,4.56-2.35,7.23 l6.84,27.88l-19.08,21.44c-1.84,2.06-2.33,4.94-1.3,7.5c1.04,2.56,3.39,4.28,6.15,4.47l28.63,2.11l14.5,24.78 c1.4,2.39,3.96,3.72,6.73,3.55c2.75-0.19,5.11-1.91,6.16-4.46l10.84-26.58l28.06-6.13c2.69-0.59,4.79-2.62,5.44-5.31 C277.22,211.3,276.32,208.53,274.21,206.75z M238.05,214.26c-2.32,0.51-4.24,2.12-5.13,4.31l-8.15,19.95l-10.89-18.61 c-1.19-2.04-3.32-3.36-5.69-3.54l-21.49-1.58l14.32-16.1c1.57-1.77,2.18-4.19,1.61-6.5l-5.14-20.93l19.74,8.65 c2.17,0.95,4.67,0.78,6.69-0.48l18.32-11.35l-2.13,21.44c-0.24,2.36,0.7,4.69,2.52,6.21l16.45,13.92L238.05,214.26z"></path> </g> </g> </g> <g> <g> <g> <path class="st0" d="M473.85,377.85l-23.04-20.35c-5.54-4.89-13.97-4.99-19.63-0.24l-2.13,1.8l-0.39-1.39 c-1.02-3.69-2.83-6.94-5.4-9.7c-3.19-3.44-7.26-5.81-11.77-6.89l-0.98-0.23l0.31-0.95c2.68-8.24,0.69-17.29-5.18-23.61 c-4.32-4.66-10.2-7.36-16.56-7.59h-0.35l-1.18-0.02l0.05-0.95c0.31-6.45-1.94-12.61-6.31-17.32 c-4.27-4.6-10.07-7.29-16.34-7.58l-0.96-0.05l0.08-0.95c0.59-6.71-1.69-13.37-6.25-18.29c-4.33-4.66-10.21-7.35-16.57-7.59 c-6.31-0.24-12.42,2.02-17.08,6.35l-3.83,3.56l-0.62-0.44c-4.64-3.35-10.18-5.23-16.01-5.42c-0.68-0.03-1.37-0.02-2.21,0.01 l-1.3,0.06l2.83-9.45c1.69-5.62,4.24-16.87,6.87-38.55c0.06-0.47,0.1-0.85,0.16-1.16l0.01-0.05c0.15-0.75,0.36-0.99,1.01-0.93 l0.89,0.07l-0.02,0.33c0.05,0.03,0.09,0.05,0.13,0.06c3.2,1.43,6.76,2.18,10.29,2.18c4.06,0,8.06-0.98,11.57-2.83 c7.43-3.94,12.69-12.15,13.12-20.45c0.4-7.85-3.32-14.81-10.46-19.56c-2.74-1.82-6.47-1.08-8.3,1.67 c-1.83,2.74-1.08,6.46,1.66,8.3c3.59,2.4,5.32,5.43,5.14,9c-0.2,4.1-3.05,8.51-6.76,10.47c-3.41,1.8-7.77,1.92-11.38,0.31 c-2.33-1.05-5.36-3.25-6.51-7.88c-3.27-13.06,4.09-25.81,12.61-40.57c15.11-26.18,33.91-58.74-5.4-105.2L301.2,26.36 c-3.16-3.73-7.57-6.01-12.44-6.41c-4.87-0.4-9.59,1.12-13.31,4.29c-10.36,8.81-15.76,22.17-14.42,35.71l0.82,8.31 c0.11,1.38,0.1,3.62-0.75,6.18c-1.18,3.55-3.34,5.76-4.46,6.77c2.51,2.98,5.01,5.96,7.52,8.94c1.89-1.55,5.77-5.16,8.04-11.17 c1.9-5.06,1.8-9.5,1.57-11.88l-0.81-8.31c-0.95-9.64,2.88-19.14,10.26-25.42c1.28-1.09,2.91-1.61,4.58-1.47 c1.67,0.14,3.19,0.92,4.27,2.2l16.45,19.44c33.87,40.04,19.44,65.03,4.18,91.48c-2.31,4.01-4.7,8.16-6.88,12.38l-1.06,2.06 l-0.66-2.23c-5.78-19.88-15.31-37.81-28.31-53.26l-32.23-38.32l0.88-0.74c2.35-1.98,3.8-4.75,4.06-7.81 c0.26-3.06-0.68-6.04-2.66-8.38l-10.1-12.02c-1.98-2.35-4.75-3.79-7.81-4.06c-3.06-0.26-6.04,0.68-8.38,2.66L59.77,169.66 c-4.85,4.07-5.47,11.34-1.4,16.19l10.11,12.02c1.97,2.35,4.75,3.79,7.81,4.06c3.07,0.26,6.03-0.68,8.38-2.66l0.89-0.75 l13.1,15.57l-0.77,0.59c-3.56,2.75-8.29,3.69-12.6,2.5l-8.06-2.2c-13.13-3.6-27.19-0.54-37.63,8.19 c-3.75,3.14-6.05,7.54-6.47,12.41c-0.43,4.86,1.07,9.59,4.21,13.33l16.4,19.49c39.18,46.58,74.45,33.54,102.79,23.07 c13.21-4.88,24.62-9.1,35.15-7.58l0.12,0.03c2.01,0.56,3.89,1.06,5.74,1.51l0.12,0.04c0.32,0.13,0.66,0.26,0.98,0.41 c4.37,1.92,6.04,5.27,6.68,7.75c0.98,3.83,0.13,8.11-2.22,11.16c-2.56,3.32-7.37,5.39-11.46,4.91c-3.56-0.43-6.25-2.64-8-6.58 c-1.34-3.02-4.89-4.38-7.91-3.04c-3.02,1.34-4.38,4.89-3.04,7.9c3.49,7.84,9.71,12.68,17.53,13.61 c8.24,0.98,17.33-2.95,22.36-9.49c4.62-5.99,6.24-14,4.33-21.43c-0.02-0.1-0.05-0.19-0.08-0.29l-0.43-1.55l1.36,0.16 c6.33,0.71,12.73,1.07,19.01,1.07c6.88,0,13.88-0.42,20.81-1.24l2.94-0.35l-1.51,1.79c-3.1,3.71-5.46,7.88-7.01,12.41 l-27.29,67.12l-0.2,0.15L79.56,481.38c-2.04,1.56-2.84,4.25-2.02,6.68c0.82,2.43,3.1,4.06,5.67,4.06h164.23 c1.61,0,3.18-0.66,4.29-1.81l9.15-9.39c2.31-2.37,2.26-6.17-0.11-8.47c-1.14-1.11-2.66-1.75-4.25-1.69 c-1.6,0.02-3.09,0.67-4.21,1.81l-7.38,7.58h-144.1l132.47-101.86c0.06-0.04,0.1-0.07,0.15-0.12l0.25-0.21 c0.19-0.18,0.37-0.36,0.54-0.56l0.07-0.1c0.17-0.2,0.3-0.4,0.43-0.6l0.05-0.07c0.16-0.27,0.29-0.51,0.39-0.77l0.06-0.11 l27.93-68.7c0.05-0.11,0.09-0.23,0.13-0.34c1.41-4.19,3.86-8.01,7.1-11.06l19.85-18.69c3.59-3.38,8.24-5.15,13.07-4.99 c4.59,0.15,8.81,2.06,11.89,5.36l28.48,30.59c1.62,1.73,2.46,4.03,2.37,6.45c-0.09,2.58-1.21,5-3.15,6.81l-4,3.71 c-2.98,2.77-7.32,3.43-10.81,1.65l-0.23-0.11c-0.85-0.47-1.58-1.05-2.21-1.72l-10.08-10.84c-3.44-3.69-8.13-5.82-13.21-5.99 c-5.21-0.15-10.22,1.72-14.06,5.33c-0.32,0.31-0.62,0.65-0.86,1.01c-0.62,0.92-0.97,1.98-1.02,3.07 c-0.01,0.22-0.01,0.44,0,0.67c0.04,0.56,0.06,1.09,0.07,1.62c0.01,0.23,0.01,0.45,0.01,0.68v0.36 c0.01,0.18,0.01,0.36,0.01,0.54c-0.01,0.38-0.02,0.75-0.04,1.12l-0.01,0.41c-0.03,0.43-0.06,0.84-0.09,1.25l-0.01,0.19 c-0.02,0.16-0.04,0.31-0.04,0.46c-0.67,6.65-3.02,12.48-7.19,17.9c-2.02,2.61-1.53,6.38,1.09,8.4 c2.61,2.01,6.38,1.52,8.39-1.09c2.33-3.02,4.28-6.25,5.8-9.62l0.65-1.44l60.25,82.4l-2.2,1.84l-0.16,0.06 c-0.8,0.28-1.5,0.69-2.11,1.26c-5.01,4.6-11.15,7.71-17.77,9l-0.11,0.02l-43.29,3.11c-1.46,0.1-2.83,0.74-3.85,1.79 l-11.06,11.35c-1.12,1.15-1.72,2.66-1.69,4.26c0.02,1.59,0.66,3.09,1.81,4.2c1.12,1.1,2.61,1.7,4.18,1.7 c1.63,0,3.15-0.65,4.29-1.81l9.46-9.71l42.57-3.1l0.07,0.95c0.18,2.4,0.92,4.72,2.15,6.73l16.1,26.19 c2.29,3.73,6.08,6.27,10.41,6.96c4.3,0.69,8.75-0.55,12.07-3.33l97.42-81.94c3.35-2.81,5.31-6.94,5.36-11.32 C478.99,384.93,477.14,380.75,473.85,377.85z M165.42,275.65c-4.41,1.4-8.8,3.02-13.04,4.59c-6.45,2.38-12.83,4.74-19.22,6.5 c-6.39,1.76-12.8,2.93-19.31,2.93c-15.88,0-32.4-6.91-50.94-28.96l-16.4-19.49c-1.07-1.29-1.59-2.92-1.44-4.59 c0.15-1.67,0.94-3.19,2.22-4.26c7.43-6.21,17.44-8.4,26.78-5.83l8.06,2.21c8.15,2.23,16.95,0.4,23.54-4.92l0.71-0.56 l11.43,13.59c13.03,15.49,29.09,27.97,47.75,37.08l2.07,1.01L165.42,275.65z M291.55,247.16l-5.31,17.73l-0.28,0.19 c-1.41,0.95-2.73,2.01-3.94,3.14l-6.84,6.44l-19.02,2.28c-6.51,0.78-12.99,1.16-19.38,1.16c-43.39,0-83.45-17.59-109.82-48.94 l-32.23-38.32l13.06-10.98c1.23-1.04,1.98-2.47,2.11-4.07c0.14-1.59-0.35-3.14-1.38-4.36c-1.03-1.23-2.47-1.98-4.06-2.11 c-1.58-0.14-3.15,0.35-4.37,1.38l-22.74,19.13l-9.49-11.29l0.71-0.59L226.88,44.77l9.48,11.28l-111.34,93.65 c-2.53,2.13-2.85,5.92-0.73,8.44c2.12,2.53,5.91,2.85,8.44,0.73l101.67-85.51l32.23,38.33 C296.88,147.65,306.19,198.29,291.55,247.16z M406.43,352.42L406.43,352.42c3.1,0.12,5.95,1.43,8.06,3.69 c3.57,3.84,4.1,9.62,1.3,14.05l-0.19,0.21l-30.35,25.52l-0.29,0.03c-0.33,0.03-0.66,0.04-0.98,0.04 c-3.19,0-6.22-1.31-8.43-3.69c-4.33-4.67-4.06-12,0.6-16.34l4.45-4.13c0.8-0.58,1.55-1.19,2.21-1.81l16.99-15.77 C401.79,352.96,404.07,352.34,406.43,352.42z M380.93,323.16l0.1-0.09c2.19-1.68,4.83-2.52,7.61-2.42 c3.16,0.12,6.08,1.46,8.24,3.78c4.44,4.78,4.16,12.28-0.62,16.72l-4.06,3.77c-0.81,0.59-1.54,1.19-2.21,1.81l-17.01,15.78 c-1.91,1.22-4.08,1.86-6.33,1.86c-0.16,0-0.31,0-0.46-0.01c-3.16-0.12-6.08-1.45-8.24-3.78c-4.12-4.44-4.23-11.24-0.25-15.81 l0.09-0.09c0.22-0.19,0.45-0.4,0.68-0.6l21.58-20.06C380.35,323.74,380.65,323.45,380.93,323.16z M344.92,291.66l-16.13-17.32 l3.53-3.29c2.3-2.13,5.34-3.24,8.49-3.16c3.17,0.12,6.09,1.46,8.24,3.78c4.44,4.78,4.16,12.29-0.62,16.72L344.92,291.66z M342.83,336.68c1.56-0.88,2.98-1.9,4.21-3.04l4-3.72c4.29-3.98,6.76-9.35,6.97-15.14c0.18-5.04-1.35-9.77-4.42-13.69 l-0.53-0.67l2.71-2.52c2.32-2.16,5.32-3.29,8.49-3.16c3.16,0.11,6.08,1.45,8.24,3.77c4.12,4.44,4.23,11.25,0.25,15.82 l-0.09,0.09c-0.22,0.19-0.45,0.39-0.67,0.59l-21.59,20.06c-0.31,0.29-0.6,0.57-0.89,0.87l-0.1,0.09 c-1.76,1.34-3.85,2.16-6.06,2.36l-4.33,0.4L342.83,336.68z M298.41,323.01l0.01-0.32c0.03-0.51,0.05-1.02,0.05-1.54l0.01-0.63 l0.59-0.22c0.22-0.09,0.45-0.17,0.69-0.23c0.71-0.19,1.44-0.28,2.18-0.24c1.88,0.06,3.59,0.83,4.84,2.18l10.08,10.84 c0.96,1.04,2.04,1.98,3.2,2.81l0.21,0.15l0.1,0.24c1.06,2.51,2.56,4.8,4.42,6.81c4.32,4.66,10.21,7.36,16.57,7.59l1.54,0.03 l-0.05,0.95c-0.31,6.45,1.94,12.6,6.31,17.31c3.22,3.47,7.33,5.88,11.89,6.96l0.98,0.23l-0.31,0.96 c-2.75,8.2-0.81,17.21,5.05,23.53c1.68,1.8,3.61,3.32,5.77,4.52l1.18,0.66l-9.24,7.77L298.41,323.01z M465.87,391.45 l-97.43,81.94c-0.69,0.58-1.42,0.72-1.95,0.72c-0.19,0-0.36-0.02-0.5-0.04c-0.52-0.09-1.48-0.38-2.12-1.42l-16.1-26.19 c-0.8-1.3-0.53-2.95,0.64-3.94l90.48-76.1c1.12-0.94,2.91-0.92,4,0.05l23.04,20.35c0.92,0.81,1.04,1.81,1.04,2.33 C466.95,390.04,466.56,390.88,465.87,391.45z"></path> </g> </g> </g> </g> </g> <g id="Layer_4"> </g> </svg>